<svg width="24" height="24" viewBox="0 0 24 24" fill="none" xmlns="http://www.w3.org/2000/svg">
<path d="M23 3.35714V20.6429C23 21.9442 21.9442 23 20.6429 23H16.454V14.2982H19.4299L19.8571 10.9786H16.454V8.85714C16.454 7.89464 16.7192 7.24152 18.0991 7.24152H19.8571V4.27545C19.5527 4.23616 18.5116 4.14286 17.2937 4.14286C14.7598 4.14286 13.0214 5.68973 13.0214 8.53304V10.9835H10.0357V14.3031H13.0263V23H3.35714C2.0558 23 1 21.9442 1 20.6429V3.35714C1 2.0558 2.0558 1 3.35714 1H20.6429C21.9442 1 23 2.0558 23 3.35714Z" fill="#456AB8"/>
</svg>
