<svg width="19" height="19" viewBox="0 0 19 19" fill="none" xmlns="http://www.w3.org/2000/svg">
<path d="M18.6299 17.4146L14.376 13.1606C14.2705 13.0903 14.165 13.02 14.0596 13.02H13.6025C14.6924 11.7544 15.3955 10.0669 15.3955 8.23877C15.3955 4.23096 12.0908 0.92627 8.08301 0.92627C4.04004 0.92627 0.770508 4.23096 0.770508 8.23877C0.770508 12.2817 4.04004 15.5513 8.08301 15.5513C9.91113 15.5513 11.5635 14.8833 12.8643 13.7935V14.2505C12.8643 14.356 12.8994 14.4614 12.9697 14.5669L17.2236 18.8208C17.3994 18.9966 17.6807 18.9966 17.8213 18.8208L18.6299 18.0122C18.8057 17.8716 18.8057 17.5903 18.6299 17.4146ZM8.08301 13.8638C4.9541 13.8638 2.45801 11.3677 2.45801 8.23877C2.45801 5.14502 4.9541 2.61377 8.08301 2.61377C11.1768 2.61377 13.708 5.14502 13.708 8.23877C13.708 11.3677 11.1768 13.8638 8.08301 13.8638Z" fill="white"/>
</svg>
