<svg width="32" height="32" viewBox="0 0 32 32" fill="none" xmlns="http://www.w3.org/2000/svg">
<path d="M16.0002 15.0571L21.5288 9.52851C21.7891 9.26816 22.2112 9.26816 22.4716 9.52851C22.7319 9.78886 22.7319 10.211 22.4716 10.4713L16.943 15.9999L22.4716 21.5285C22.7319 21.7889 22.7319 22.211 22.4716 22.4713C22.2112 22.7317 21.7891 22.7317 21.5288 22.4713L16.0002 16.9427L10.4716 22.4713C10.2112 22.7317 9.78911 22.7317 9.52876 22.4713C9.26841 22.211 9.26841 21.7889 9.52876 21.5285L15.0574 15.9999L9.52876 10.4713C9.26841 10.211 9.26841 9.78886 9.52876 9.52851C9.78911 9.26816 10.2112 9.26816 10.4716 9.52851L16.0002 15.0571Z" fill="white"/>
</svg>
