<svg width="14" height="14" viewBox="0 0 14 14" fill="none" xmlns="http://www.w3.org/2000/svg">
<path d="M6.66667 5.72386L12.1953 0.195262C12.4556 -0.0650874 12.8777 -0.0650874 13.1381 0.195262C13.3984 0.455612 13.3984 0.877722 13.1381 1.13807L7.60948 6.66667L13.1381 12.1953C13.3984 12.4556 13.3984 12.8777 13.1381 13.1381C12.8777 13.3984 12.4556 13.3984 12.1953 13.1381L6.66667 7.60948L1.13807 13.1381C0.877722 13.3984 0.455612 13.3984 0.195262 13.1381C-0.0650874 12.8777 -0.0650874 12.4556 0.195262 12.1953L5.72386 6.66667L0.195262 1.13807C-0.0650874 0.877722 -0.0650874 0.455612 0.195262 0.195262C0.455612 -0.0650874 0.877722 -0.0650874 1.13807 0.195262L6.66667 5.72386Z" fill="#383838"/>
</svg>
