<svg width="24" height="20" viewBox="0 0 24 20" fill="none" xmlns="http://www.w3.org/2000/svg">
<path fill-rule="evenodd" clip-rule="evenodd" d="M3.85348 17.378C3.65822 17.5407 3.34164 17.5407 3.14637 17.378C2.95111 17.2152 2.95111 16.9514 3.14637 16.7887L20.1464 2.62204C20.3416 2.45932 20.6582 2.45932 20.8535 2.62204C21.0487 2.78476 21.0487 3.04858 20.8535 3.21129L3.85348 17.378ZM5.56743 12.9685C5.77394 13.1213 5.79272 13.3846 5.60938 13.5567C5.42605 13.7288 5.11002 13.7444 4.90352 13.5917C3.63534 12.6534 2.65019 11.4753 2.03382 10.1506C1.98873 10.0537 1.98873 9.94627 2.03382 9.84936C4.09127 5.42764 9.94271 3.1306 15.3273 4.60439C15.5896 4.6762 15.7325 4.91164 15.6463 5.13027C15.5601 5.3489 15.2776 5.46792 15.0153 5.39611C10.1969 4.0773 4.96479 6.09072 3.03835 9.99997C3.60037 11.1394 4.46614 12.1537 5.56743 12.9685ZM12.6197 6.7065C12.8926 6.7419 13.0793 6.95493 13.0369 7.1823C12.9944 7.40968 12.7387 7.56531 12.4659 7.52991C12.3129 7.51005 12.1573 7.5 12 7.5C10.3431 7.5 9 8.61929 9 10C9 10.1297 9.01181 10.258 9.03513 10.3842C9.07717 10.6116 8.88999 10.8244 8.61707 10.8594C8.34414 10.8944 8.08882 10.7385 8.04679 10.511C8.01571 10.3429 8 10.1722 8 10C8 8.15905 9.79086 6.66667 12 6.66667C12.2088 6.66667 12.4159 6.68004 12.6197 6.7065ZM11.0279 12.8336C10.9907 13.0616 11.1823 13.2717 11.4559 13.3027C11.6353 13.3231 11.817 13.3333 12 13.3333C14.2091 13.3333 16 11.8409 16 10C16 9.86555 15.9904 9.73199 15.9714 9.59982C15.9386 9.37134 15.6897 9.2083 15.4155 9.23568C15.1413 9.26305 14.9457 9.47047 14.9785 9.69895C14.9928 9.79824 15 9.8987 15 10C15 11.3807 13.6569 12.5 12 12.5C11.8621 12.5 11.7255 12.4923 11.5908 12.477C11.3172 12.4459 11.0652 12.6056 11.0279 12.8336ZM18.3905 6.4433C18.2072 6.61538 18.226 6.87874 18.4325 7.03151C19.5338 7.84629 20.3995 8.86056 20.9616 10C19.0351 13.9093 13.8031 15.9227 8.98466 14.6039C8.72231 14.5321 8.43978 14.6511 8.35361 14.8697C8.26744 15.0884 8.41026 15.3238 8.67262 15.3956C14.0572 16.8694 19.9086 14.5724 21.9661 10.1506C22.0112 10.0537 22.0112 9.94628 21.9661 9.84937C21.3497 8.52471 20.3646 7.34659 19.0964 6.40834C18.8899 6.25556 18.5739 6.27121 18.3905 6.4433Z" fill="#646464"/>
</svg>
