<svg width="24" height="24" viewBox="0 0 24 24" fill="none" xmlns="http://www.w3.org/2000/svg">
<path d="M22.56 12.2445C22.56 11.34 22.4866 10.68 22.3278 9.99561H12V14.0778H18.0622C17.94 15.0923 17.28 16.62 15.8133 17.6467L15.7927 17.7833L19.0582 20.313L19.2844 20.3356C21.3622 18.4167 22.56 15.5933 22.56 12.2445Z" fill="#4285F4"/>
<path d="M12 23C14.97 23 17.4633 22.0221 19.2845 20.3355L15.8133 17.6466C14.8845 18.2944 13.6378 18.7466 12 18.7466C9.09117 18.7466 6.6223 16.8278 5.74221 14.1755L5.61321 14.1865L2.21774 16.8143L2.17334 16.9377C3.98221 20.531 7.69778 23 12 23Z" fill="#34A853"/>
<path d="M5.74218 14.1756C5.50996 13.4911 5.37557 12.7577 5.37557 12C5.37557 11.2422 5.50996 10.5089 5.72996 9.82443L5.72381 9.67866L2.28579 7.00867L2.17331 7.06217C1.42778 8.5533 1 10.2278 1 12C1 13.7722 1.42778 15.4466 2.17331 16.9377L5.74218 14.1756Z" fill="#FBBC05"/>
<path d="M12 5.25331C14.0656 5.25331 15.4589 6.14552 16.2533 6.89113L19.3578 3.86C17.4512 2.08778 14.97 1 12 1C7.69778 1 3.98221 3.46887 2.17334 7.06218L5.72999 9.82444C6.6223 7.17222 9.09117 5.25331 12 5.25331Z" fill="#EB4335"/>
</svg>
