<svg width="30" height="30" viewBox="0 0 30 30" fill="none" xmlns="http://www.w3.org/2000/svg">
<rect width="30" height="30" rx="4" fill="#ED652E"/>
<path d="M19.1275 6H10.8724C8.18573 6 6 8.18573 6 10.8724V19.1277C6 21.8142 8.18573 24 10.8724 24H19.1277C21.8142 24 24 21.8142 24 19.1277V10.8724C24 8.18573 21.8142 6 19.1275 6V6ZM15 19.9217C12.2861 19.9217 10.0783 17.7139 10.0783 15C10.0783 12.2861 12.2861 10.0783 15 10.0783C17.7139 10.0783 19.9217 12.2861 19.9217 15C19.9217 17.7139 17.7139 19.9217 15 19.9217ZM20.0394 11.239C19.2374 11.239 18.5851 10.5866 18.5851 9.78465C18.5851 8.98265 19.2374 8.3302 20.0394 8.3302C20.8414 8.3302 21.4939 8.98265 21.4939 9.78465C21.4939 10.5866 20.8414 11.239 20.0394 11.239Z" fill="white"/>
<path d="M14.9998 11.1335C12.8679 11.1335 11.1333 12.8679 11.1333 15C11.1333 17.1319 12.8679 18.8665 14.9998 18.8665C17.1318 18.8665 18.8663 17.1319 18.8663 15C18.8663 12.8679 17.1318 11.1335 14.9998 11.1335Z" fill="white"/>
<path d="M20.0397 9.38556C19.8197 9.38556 19.6406 9.56464 19.6406 9.78464C19.6406 10.0046 19.8197 10.1837 20.0397 10.1837C20.2598 10.1837 20.4389 10.0048 20.4389 9.78464C20.4389 9.5645 20.2598 9.38556 20.0397 9.38556Z" fill="white"/>
</svg>
