<svg width="22" height="17" viewBox="0 0 22 17" fill="none" xmlns="http://www.w3.org/2000/svg">
<path d="M5.78125 5.92969C5.39453 6.28125 5.39453 6.87891 5.78125 7.23047L11.9688 12.5742C12.4961 13.0312 13.375 12.6445 13.375 11.9062V8.95312C17.1719 9.41016 18.6836 11.0273 17.3125 15.3516C17.1367 15.9141 17.8398 16.3711 18.2969 16.0195C19.8438 14.8945 21.25 12.75 21.25 10.6055C21.25 5.96484 17.9102 4.52344 13.375 4.13672V1.25391C13.375 0.515625 12.4961 0.128906 11.9688 0.585938L5.78125 5.92969ZM1.28125 7.23047L7.46875 12.5742C7.99609 13.0312 8.875 12.6445 8.875 11.9062V11.3789L5.04297 8.07422C4.62109 7.72266 4.33984 7.16016 4.33984 6.59766C4.33984 6.59766 4.375 6.59766 4.375 6.5625C4.375 6 4.62109 5.4375 5.04297 5.08594L8.875 1.78125V1.25391C8.875 0.515625 7.99609 0.128906 7.46875 0.585938L1.28125 5.92969C0.894531 6.28125 0.894531 6.87891 1.28125 7.23047Z" fill="#ED652E"/>
</svg>
