<svg width="9" height="14" viewBox="0 0 9 14" fill="none" xmlns="http://www.w3.org/2000/svg">
<path d="M4.5 9.86957L6.10984 8.25974C6.25628 8.11329 6.49372 8.11329 6.64016 8.25974C6.78661 8.40618 6.78661 8.64362 6.64016 8.79007L4.76516 10.6651C4.61872 10.8115 4.38128 10.8115 4.23484 10.6651L2.35983 8.79007C2.21339 8.64362 2.21339 8.40618 2.35983 8.25974C2.50628 8.11329 2.74372 8.11329 2.89017 8.25974L4.5 9.86957Z" fill="#ED652E"/>
<path d="M4.5 4.13043L6.10984 5.74026C6.25628 5.88671 6.49372 5.88671 6.64016 5.74026C6.78661 5.59382 6.78661 5.35638 6.64016 5.20993L4.76516 3.33493C4.61872 3.18849 4.38128 3.18849 4.23484 3.33493L2.35983 5.20993C2.21339 5.35638 2.21339 5.59382 2.35983 5.74026C2.50628 5.88671 2.74372 5.88671 2.89017 5.74026L4.5 4.13043Z" fill="#ED652E"/>
</svg>
