<svg width="6" height="8" viewBox="0 0 6 8" fill="none" xmlns="http://www.w3.org/2000/svg">
<g clip-path="url(#clip0)">
<path d="M2.53125 6.64447L4.34231 5.03464C4.50707 4.88819 4.77418 4.88819 4.93894 5.03464C5.10369 5.18109 5.10369 5.41852 4.93894 5.56497L2.82956 7.43997C2.66481 7.58642 2.39769 7.58642 2.23294 7.43997L0.123564 5.56497C-0.041188 5.41852 -0.041188 5.18109 0.123564 5.03464C0.288317 4.88819 0.555433 4.88819 0.720186 5.03464L2.53125 6.64447Z" fill="#646464"/>
<path d="M2.53125 0.905331L4.34231 2.51517C4.50707 2.66161 4.77418 2.66161 4.93894 2.51517C5.10369 2.36872 5.10369 2.13128 4.93894 1.98483L2.82956 0.109835C2.66481 -0.0366116 2.39769 -0.0366116 2.23294 0.109835L0.123564 1.98483C-0.041188 2.13128 -0.041188 2.36872 0.123564 2.51517C0.288317 2.66161 0.555433 2.66161 0.720186 2.51517L2.53125 0.905331Z" fill="#646464"/>
</g>
<defs>
<clipPath id="clip0">
<rect width="6" height="8" fill="white"/>
</clipPath>
</defs>
</svg>
