<svg width="13" height="12" viewBox="0 0 13 12" fill="none" xmlns="http://www.w3.org/2000/svg">
<path d="M12.3594 4.95312L9.78125 7.49219L10.3672 11.0469C10.3672 11.0729 10.3672 11.099 10.3672 11.125C10.3672 11.2552 10.3151 11.3724 10.2109 11.4766C10.1328 11.5547 10.0286 11.5938 9.89844 11.5938C9.82031 11.5938 9.75521 11.5677 9.70312 11.5156L6.5 9.83594L3.29688 11.5156C3.24479 11.5677 3.17969 11.5938 3.10156 11.5938C2.97135 11.5938 2.85417 11.5547 2.75 11.4766C2.67188 11.3724 2.63281 11.2552 2.63281 11.125C2.63281 11.099 2.63281 11.0729 2.63281 11.0469L3.21875 7.49219L0.640625 4.95312C0.5625 4.875 0.523438 4.77083 0.523438 4.64062C0.523438 4.38021 0.653646 4.22396 0.914062 4.17188L4.46875 3.66406L6.07031 0.421875C6.17448 0.239583 6.31771 0.148438 6.5 0.148438C6.68229 0.148438 6.82552 0.239583 6.92969 0.421875L8.53125 3.66406L12.0859 4.17188C12.3464 4.22396 12.4766 4.38021 12.4766 4.64062C12.4766 4.77083 12.4375 4.875 12.3594 4.95312Z" fill="#ED652E"/>
</svg>
